<?xml version="1.0" encoding="UTF-8" standalone="no"?>
<svg
   width="792.88525"
   height="767.36469"
   version="1.1"
   id="svg15"
   xmlns="http://www.w3.org/2000/svg"
   xmlns:svg="http://www.w3.org/2000/svg">
  <defs
     id="defs15" />
  <path
     fill="#14686b"
     d="m 659.32742,92.40286 c 12.546,6.641004 25.69,12.687 37.675,20.307 22.379,14.228 42.271,36.924 50.188,62.476 3.482,11.24 6.539,22.649 9.785,33.961 2.362,8.234 5.012,16.453 7.118,24.752 -14.338,-15.995 -29.661,-31.105 -44.047,-47.061 l -91.025,-1.838 c -14.757,-0.254 -29.578,-0.983 -44.331,-0.709 5.724,-7.403 12.061,-14.407 18.032,-21.618 l 31.501,-38.533 c 7.016,-8.5 17.417,-19.16 22.368,-28.826 z"
     id="path2" />
  <path
     fill="#14686b"
     d="m 360.81642,213.35586 q 37.822,54.399 75.031,109.222 c -39.397,-12.646 -78.296,-27.33 -117.288,-41.191 -42.964,-15.272 -86.228,-29.966 -128.887,-46.068 0.601,-0.391 1.076,-0.724 1.783,-0.903 4.672,-1.182 10.209,-1.32 15.024,-1.924 l 34.612,-4.355 q 59.814,-7.787 119.725,-14.781 z"
     id="path3" />
  <path
     fill="#08494f"
     d="m 536.67042,299.84586 c 9.404,3.094 19.046,5.489 28.53,8.332 16.931,5.077 33.772,10.395 50.746,15.34 10.404,3.031 21.404,5.51 31.587,9.166 0.048,0.311 0.164,0.62 0.145,0.935 -0.129,2.114 -23.571,48.743 -25.884,53.427 l -57.057,117.896 q -8.819,18.853 -17.957,37.554 c -2.369,4.8 -4.59,10.404 -7.65,14.758 -0.098,0.14 -0.208,0.272 -0.312,0.408 -1.433,-8.481 -0.64,-18.004 -0.803,-26.597 -0.392,-20.69 -0.935,-41.568 -0.41,-62.253 -0.392,-7.84 -0.058,-15.849 -0.056,-23.707 z"
     id="path4" />
  <path
     fill="#28d5a7"
     d="m 149.55642,239.35786 219.711,77.23 53.117,18.187 c 7.356,2.441 21.708,6.088 27.903,9.587 -9.092,4.138 -33.536,6.207 -44.826,7.881 l -82.091,12.835 c -11.459,1.851 -23.308,3.023 -34.636,5.41 -1.419,0.299 -2.429,0.546 -3.565,1.464 -17.378,-6.714 -34.939,-13.049 -52.389,-19.581 -8.154,-3.052 -16.898,-5.698 -24.733,-9.473 -11.946,-19.686 -22.576,-40.425 -33.869,-60.501 l -16.111,-28.474 c -2.801,-4.87 -6.005,-9.535 -8.511,-14.565 z"
     id="path5" />
  <path
     fill="#08494f"
     d="m 47.706422,741.39686 c 5.997,-1.161 62.838998,-47.749 72.791998,-55.65 l 173.947,-136.777 64.044,-49.591 c 9.382,-7.229 18.593,-15.302 28.301,-22.01 1.445,-0.999 2.457,-1.392 4.193,-1.652 q -19.449,44.411 -39.438,88.581 c -7.954,17.754 -15.259,36.146 -24.384,53.328 q -145.406,67.01 -289.736998,136.307 c 3.112,-4.072 6.546,-9.042 10.282,-12.536 z"
     id="path6" />
  <path
     fill="#0cb087"
     d="m 67.737422,93.92886 c 8.706,2.891004 17.287,6.385 25.882,9.599 l 63.300998,23.917 q 97.714,36.296 195.055,73.583 c 3.16,3.941 5.961,8.18 8.841,12.328 q -59.911,6.994 -119.725,14.781 l -34.612,4.355 c -4.815,0.604 -10.352,0.742 -15.024,1.924 -0.707,0.179 -1.182,0.512 -1.783,0.903 -4.72,-1.179 -9.544,-3.223 -14.151,-4.828 -13.136,-4.575 -26.087,-9.642 -39.276,-14.064 -4.58,-6.363 -8.138,-14.066 -11.953,-20.93 q -12.258,-21.839 -24.163,-43.873 c -10.471998,-19.401 -22.109998,-38.201 -32.391998,-57.695 z"
     id="path7" />
  <path
     fill="#EA4550"
     d="m 418.39842,109.72586 c 7.124,34.895 12.288,70.326 18.587,105.398 19.561,18.006 40.582,34.907 60.929,52.022 12.438,10.461 25.435,22.591 38.219,32.348 l 0.537,0.352 0.879,145.259 c -4.677,-5.229 -8.32,-11.895 -12.269,-17.735 l -25.813,-38.124 -94.898,-138.578 q -14.34,-21.253 -28.973,-42.307 c -4.376,-6.431 -8.301,-13.458 -13.159,-19.514 18.99,-26.115 36.378,-53.435 55.961,-79.121 z"
     id="path8"
     style="fill:#08494f;fill-opacity:1" />
  <path
     fill="#28d5a7"
     d="m 491.45142,6.3628596 c 6.109,2.565 12.018,5.9830004 17.969,8.9350004 16.77,8.319 33.301,17.025 49.953,25.569 l 63.556,32.833 c 12.119,6.229 24.489,12.081 36.398,18.703 l -2.736,2.911 c -7.905,3.251004 -23.177,14.361 -31.269,19.605 -15.723,10.19 -31.665,20.095 -47.235,30.508 -14.362,9.604 -28.561,19.946 -43.47,28.666 -3.574,-2.858 -8.171,-5.165 -12.107,-7.568 l -25.863,-15.752 -46.785,-28.585 c -8.194,-4.992 -16.34,-10.256 -24.721,-14.915 -1.312,-0.73 -2.461,-1.193 -3.94,-1.51 11.523,-17.061 23.81,-33.739 35.749,-50.518 11.56,-16.247 22.839,-32.711 34.501,-48.8820004 z"
     id="path9" />
  <path
     fill="#0cb087"
     d="m 534.61742,174.09286 c 14.909,-8.72 29.108,-19.062 43.47,-28.666 15.57,-10.413 31.512,-20.318 47.235,-30.508 8.092,-5.244 23.364,-16.353996 31.269,-19.605 -4.951,9.666 -15.352,20.326 -22.368,28.826 l -31.501,38.533 c -5.971,7.211 -12.308,14.215 -18.032,21.618 1.516,5.297 4.317,10.452 6.413,15.56 l 17.497,41.499 c 9.379,22.28 18.403,44.707 28.09,66.859 3.552,8.121 6.846,16.584 10.843,24.475 -10.183,-3.656 -21.183,-6.135 -31.587,-9.166 -16.974,-4.945 -33.815,-10.263 -50.746,-15.34 -9.484,-2.843 -19.126,-5.238 -28.53,-8.332 l -0.537,-0.352 c -12.784,-9.757 -25.781,-21.887 -38.219,-32.348 -20.347,-17.115 -41.368,-34.016 -60.929,-52.022 -6.299,-35.072 -11.463,-70.503 -18.587,-105.398 l 2.803,-3.963 c 1.479,0.317 2.628,0.78 3.94,1.51 8.381,4.659 16.527,9.923 24.721,14.915 l 46.785,28.585 25.863,15.752 c 3.936,2.403 8.533,4.71 12.107,7.568 z"
     id="path12" />
  <path
     fill="#14686b"
     d="m 218.91642,365.45686 190.318,69.008 c -5.721,13.898 -12.166,27.51 -18.251,41.252 -1.736,0.26 -2.748,0.653 -4.193,1.652 -9.708,6.708 -18.919,14.781 -28.301,22.01 l -64.044,49.591 -173.947,136.777 c -9.953,7.901 -66.794998,54.489 -72.791998,55.65 7.314,-10.631 15.774,-20.623 23.563,-30.93 l 48.113998,-64.056 q 73.239,-98.673 147.535,-196.552 c -7.813,-14.662 -16.318,-29.079 -24.461,-43.567 -7.678,-13.661 -15.062,-27.652 -23.541,-40.835 z"
     id="path13" />
  <path
     fill="#0cb087"
     d="m 285.16942,371.95186 c 1.136,-0.918 2.146,-1.165 3.565,-1.464 11.328,-2.387 23.177,-3.559 34.636,-5.41 l 82.091,-12.835 c 11.29,-1.674 35.734,-3.743 44.826,-7.881 19.959,30.625 41.632,60.258 62.029,90.618 5.005,7.45 10.781,14.571 15.425,22.231 2.332,3.249 6.223,10.079 9.293,12.205 l 0.571,-0.604 c -0.525,20.685 0.018,41.563 0.41,62.253 0.163,8.593 -0.63,18.116 0.803,26.597 -7.47,6.44 -16.032,12.068 -23.983,17.922 l -48.246,35.426 -135.64,101.045 c -17.757,13.409 -36.18,26.208 -53.475,40.194 q 3.574,-6.574 7.54,-12.919 c 3.618,-8.546 8.583,-16.913 12.772,-25.233 q 12.012,-24.018 23.67,-48.209 34.969,-73.825 67.951,-148.559 12.84,-28.525 25.356,-57.194 c 5.199,-11.694 10.962,-23.311 15.372,-35.323 -26.88,-8.658 -53.304,-18.818 -79.765,-28.652 -21.735,-8.077 -43.609,-15.747 -65.201,-24.208 z"
     id="path14" />
  <path
     fill="#28d5a7"
     d="m 430.13542,424.81186 c 22.346,8.492 45.519,15.363 68.217,22.901 9.244,3.07 18.905,5.806 27.842,9.657 -8.398,10.782 -17.876,20.92 -26.668,31.408 l -76.792,90.173 -93.598,109.504 c -12.425,14.62 -24.349,29.638 -37.029,44.054 -2.102,2.39 -4.274,5.306 -7.093,6.821 3.618,-8.546 8.583,-16.913 12.772,-25.233 q 12.012,-24.018 23.67,-48.209 34.969,-73.825 67.951,-148.559 12.84,-28.525 25.356,-57.194 c 5.199,-11.694 10.962,-23.311 15.372,-35.323 z"
     id="path15" />
  <path
     style="fill:#edfe00;fill-opacity:1;stroke:none;stroke-width:1px;stroke-linecap:butt;stroke-linejoin:miter;stroke-opacity:1"
     d="m 495.67915,77.00124 26.32182,-31.6061 72.90439,55.73805 z"
     id="path21" />
</svg>
