<?xml version="1.0" encoding="UTF-8"?>
<svg id="Capa_2" data-name="Capa 2" xmlns="http://www.w3.org/2000/svg" viewBox="0 0 103.12 103.11">
  <defs>
    <style>
      .cls-1 {
        fill: #f6f6f6;
        stroke-width: 0px;
      }
    </style>
  </defs>
  <g id="Capa_1-2" data-name="Capa 1">
    <path class="cls-1" d="M51.56,9.29c13.77,0,15.4.05,20.83.3,5.03.23,7.76,1.07,9.57,1.77,2.41.93,4.12,2.05,5.93,3.86,1.8,1.8,2.92,3.52,3.86,5.93.71,1.82,1.54,4.55,1.77,9.57.25,5.44.3,7.07.3,20.84s-.05,15.4-.3,20.83c-.23,5.03-1.07,7.76-1.77,9.57-.94,2.41-2.05,4.12-3.86,5.93-1.81,1.81-3.52,2.92-5.93,3.86-1.82.71-4.55,1.55-9.57,1.78-5.44.25-7.07.3-20.83.3s-15.4-.05-20.83-.3c-5.03-.23-7.76-1.07-9.57-1.78-2.41-.93-4.12-2.05-5.93-3.86-1.8-1.8-2.92-3.52-3.86-5.93-.71-1.82-1.54-4.55-1.77-9.57-.25-5.44-.3-7.07-.3-20.83s.05-15.4.3-20.84c.23-5.03,1.07-7.76,1.77-9.57.94-2.41,2.05-4.13,3.86-5.93,1.8-1.8,3.52-2.92,5.93-3.86,1.82-.71,4.55-1.55,9.57-1.77,5.44-.25,7.07-.3,20.83-.3M51.56,0c-14,0-15.76.06-21.26.31-5.49.25-9.24,1.12-12.51,2.4-3.39,1.32-6.27,3.08-9.13,5.94-2.87,2.87-4.63,5.74-5.95,9.13-1.28,3.28-2.15,7.03-2.4,12.51-.25,5.5-.31,7.26-.31,21.26s.06,15.76.31,21.26c.25,5.49,1.12,9.24,2.4,12.51,1.32,3.39,3.08,6.27,5.95,9.13,2.86,2.87,5.74,4.63,9.13,5.95,3.28,1.27,7.03,2.15,12.51,2.4,5.5.25,7.25.31,21.26.31s15.76-.06,21.26-.31c5.49-.25,9.23-1.12,12.51-2.4,3.39-1.32,6.26-3.08,9.13-5.95,2.87-2.87,4.63-5.74,5.95-9.13,1.28-3.28,2.15-7.03,2.4-12.51.25-5.5.31-7.26.31-21.26s-.06-15.76-.31-21.26c-.25-5.49-1.12-9.23-2.4-12.51-1.32-3.39-3.08-6.27-5.95-9.13-2.87-2.87-5.74-4.63-9.13-5.94-3.28-1.28-7.03-2.15-12.51-2.4-5.5-.25-7.25-.31-21.26-.31M51.56,25.08c-14.62,0-26.48,11.85-26.48,26.48s11.85,26.48,26.48,26.48,26.48-11.85,26.48-26.48-11.85-26.48-26.48-26.48M51.56,68.74c-9.49,0-17.19-7.69-17.19-17.19s7.7-17.19,17.19-17.19,17.18,7.69,17.18,17.19-7.69,17.19-17.18,17.19M85.27,24.04c0-3.42-2.77-6.19-6.19-6.19s-6.19,2.77-6.19,6.19,2.77,6.19,6.19,6.19,6.19-2.77,6.19-6.19"/>
  </g>
</svg>