<?xml version="1.0" encoding="UTF-8"?>
<svg id="Capa_2" data-name="Capa 2" xmlns="http://www.w3.org/2000/svg" viewBox="0 0 651.93 190.2">
  <defs>
    <style>
      .cls-1 {
        fill: #fff;
      }

      .cls-1, .cls-2 {
        stroke-width: 0px;
      }

      .cls-2 {
        fill: #878787;
      }
    </style>
  </defs>
  <g id="Capa_1-2" data-name="Capa 1">
    <g>
      <path class="cls-1" d="M24.87,35.33h32.5l24.87,152.68h-23.99l-4.36-30.32v.44h-27.26l-4.36,29.88H0L24.87,35.33ZM51.04,137.41l-10.69-75.47h-.44l-10.47,75.47h21.59Z"/>
      <path class="cls-1" d="M93.79,35.33h35.55c12.36,0,21.38,2.87,27.05,8.62,5.67,5.75,8.51,14.58,8.51,26.5v9.38c0,15.85-5.23,25.88-15.7,30.1v.44c5.81,1.74,9.92,5.31,12.32,10.69,2.4,5.38,3.6,12.58,3.6,21.59v26.83c0,4.36.14,7.89.44,10.58.29,2.69,1.02,5.34,2.18,7.96h-24.43c-.87-2.47-1.46-4.8-1.74-6.98-.29-2.18-.44-6.11-.44-11.78v-27.92c0-6.98-1.13-11.85-3.38-14.61-2.26-2.76-6.15-4.14-11.67-4.14h-8.29v65.43h-23.99V35.33ZM126.5,100.77c4.8,0,8.4-1.23,10.8-3.71,2.4-2.47,3.6-6.62,3.6-12.43v-11.78c0-5.52-.98-9.52-2.94-12-1.96-2.47-5.05-3.71-9.27-3.71h-10.91v43.62h8.72Z"/>
      <path class="cls-1" d="M189.1,180.27c-6.11-6.62-9.16-16.1-9.16-28.46v-80.27c0-12.36,3.05-21.84,9.16-28.46,6.11-6.62,14.98-9.92,26.61-9.92s20.5,3.31,26.61,9.92c6.11,6.62,9.16,16.11,9.16,28.46v13.09h-22.68v-14.61c0-10.03-4.14-15.05-12.43-15.05s-12.43,5.02-12.43,15.05v83.54c0,9.89,4.14,14.83,12.43,14.83s12.43-4.94,12.43-14.83v-29.88h-12v-21.81h34.68v49.95c0,12.36-3.05,21.85-9.16,28.46-6.11,6.62-14.98,9.92-26.61,9.92s-20.5-3.31-26.61-9.92Z"/>
      <path class="cls-1" d="M285.51,35.33h32.5l24.87,152.68h-23.99l-4.36-30.32v.44h-27.26l-4.36,29.88h-22.25l24.87-152.68ZM304.05,0h26.17l-23.34,25.08h-18.1l15.27-25.08ZM311.68,137.41l-10.69-75.47h-.44l-10.47,75.47h21.59Z"/>
      <path class="cls-1" d="M354.43,35.33h30.1l23.34,91.39h.44V35.33h21.38v152.68h-24.65l-28.79-111.46h-.44v111.46h-21.38V35.33Z"/>
      <path class="cls-2" d="M447.56,35.33h23.99v152.68h-23.99V35.33Z"/>
      <path class="cls-2" d="M497.07,180.16c-6.25-6.69-9.38-16.14-9.38-28.35v-80.27c0-12.21,3.12-21.67,9.38-28.35,6.25-6.69,15.27-10.03,27.05-10.03s20.79,3.35,27.05,10.03c6.25,6.69,9.38,16.14,9.38,28.35v80.27c0,12.21-3.13,21.67-9.38,28.35-6.25,6.69-15.27,10.03-27.05,10.03s-20.8-3.34-27.05-10.03ZM536.55,153.33v-83.32c0-10.03-4.14-15.05-12.43-15.05s-12.43,5.02-12.43,15.05v83.32c0,10.03,4.14,15.05,12.43,15.05s12.43-5.02,12.43-15.05Z"/>
      <path class="cls-1" d="M576.68,35.33h30.1l23.34,91.39h.44V35.33h21.38v152.68h-24.65l-28.79-111.46h-.44v111.46h-21.38V35.33Z"/>
    </g>
  </g>
</svg>