<?xml version="1.0" encoding="UTF-8"?>
<svg id="Capa_2" data-name="Capa 2" xmlns="http://www.w3.org/2000/svg" viewBox="0 0 109.38 121.31">
  <defs>
    <style>
      .cls-1 {
        fill: #056939;
      }

      .cls-1, .cls-2 {
        stroke-width: 0px;
      }

      .cls-2, .cls-3 {
        fill: #1e1e1c;
      }

      .cls-3, .cls-4, .cls-5, .cls-6 {
        stroke: #1e1e1c;
        stroke-miterlimit: 10;
        stroke-width: .38px;
      }

      .cls-4 {
        fill: #966441;
      }

      .cls-5 {
        fill: #262626;
      }

      .cls-6 {
        fill: none;
      }
    </style>
  </defs>
  <g id="Capa_1-2" data-name="Capa 1">
    <g>
      <path class="cls-4" d="M43.56,82.49l.84-3.31,2.64-3.27,1.51-1.96s4.04-1.9,3.68-1.91,2.57-1.27,2.57-1.27l4.01-.9,1.46-.3,2.87.74,2.87.74.7.68.35.34.34.68.7.68.69,1.02.28,2.34-.81,2.65-2.28,3.28-2.22,1.61-2.21,1.28-4.04,1.9-3.65.91-3.96-.43-1.79-.38-2.13-1.05-1.38-2.04-1.01-2.03Z"/>
      <path class="cls-3" d="M51.85,48.12c-.26,0-.47-.21-.46-.45.05-1.37-1.12-2.51-2.61-2.55s-2.73,1.05-2.78,2.42c0,.24-.23.43-.49.43s-.47-.21-.46-.45c.06-1.85,1.75-3.32,3.76-3.27s3.59,1.6,3.53,3.45c0,.24-.23.43-.49.43Z"/>
      <path class="cls-3" d="M58.88,54.81c.03-.2-.13-.38-.35-.38l-2.78-.07-2.78-.07c-.22,0-.4.17-.37.37.15,1.44,1.44,2.58,3.05,2.62,1.61.04,2.98-1.04,3.23-2.47Z"/>
      <path class="cls-3" d="M66.09,48.48c-.26,0-.47-.21-.46-.45.05-1.37-1.12-2.51-2.61-2.55-1.48-.04-2.73,1.05-2.78,2.42,0,.24-.23.43-.49.43s-.47-.21-.46-.45c.06-1.85,1.75-3.32,3.76-3.27s3.59,1.6,3.53,3.45c0,.24-.23.43-.49.43Z"/>
      <path class="cls-3" d="M55.64,53.04c-.87-.02-1.56-.69-1.53-1.5,0-.16.15-.29.33-.28s.31.14.31.3c-.02.48.4.89.92.9.52.01.96-.37.98-.85,0-.16.15-.29.33-.28s.31.14.31.3c-.03.81-.76,1.44-1.63,1.42Z"/>
      <path class="cls-3" d="M54.07,48.03c-.17,0-.31-.14-.31-.3.04-1.25-.44-2.43-1.37-3.34s-2.18-1.42-3.53-1.46c-1.35-.03-2.64.42-3.63,1.28-.13.11-.33.11-.45-.01s-.11-.3.01-.41c1.11-.97,2.56-1.48,4.08-1.44,1.52.04,2.93.62,3.98,1.64,1.04,1.02,1.59,2.36,1.54,3.76,0,.16-.15.29-.33.28Z"/>
      <path class="cls-3" d="M57.55,48.12c-.17,0-.31-.14-.31-.3.05-1.4.69-2.71,1.8-3.68,1.11-.97,2.56-1.48,4.08-1.44s2.93.62,3.98,1.64c.12.12.11.3-.01.41s-.33.11-.45-.01c-.93-.91-2.18-1.42-3.53-1.46-1.35-.03-2.64.42-3.63,1.28-.99.86-1.55,2.02-1.6,3.27,0,.16-.15.29-.33.28Z"/>
      <path class="cls-1" d="M54.18,91.01c-.04,1.17-.25,2.77-5.09,2.16-16.25-2.64-28.34-15.95-27.8-31.64.37-10.87,6.72-20.3,16.04-25.66.15,2.34.47,4.59.94,6.73.09.42.19.84.29,1.26,0,.01,0,.03.01.04.5,2.01-.7,4.04-2.8,4.76-4.56,1.54-7.88,5.52-8.04,10.26-.04,1.18.12,2.33.45,3.41,1.06,3.47,3.9,6.27,7.57,7.49,1.19.39,2.1,1.3,2.38,2.44l.02.08c.53,2.15.83,4.74.73,7.62,0,0,.07,2.49,1.93,3.7.44.29.78.46,1.02.87.52,1.26.91,2.75.44,3.58-.22.39-.61.61-1.2.67-1.9.21-4.42-.26-8.18-10.6-.05-.15-.24-.23-.4-.18s-.25.22-.2.37c3.53,9.67,5.88,10.94,8.55,11,.1,0,.21,0,.31-.01.81-.08,1.38-.42,1.7-.99.27-.48.32-1.09.24-1.74.94.59,3.28,2.27,6.42,2.35,4.12.1,4.71,1.29,4.68,2.02Z"/>
      <path class="cls-1" d="M89.03,63.23c-.54,15.69-13.51,28.36-29.92,30.19-4.88.66-4.98-1.24-4.94-2.41.04-1.02.7-1.88,4.81-1.78,3.14.08,5.59-1.49,6.57-2.03-.12.64-.11,1.25.12,1.75.28.58.83.94,1.63,1.07.1.02.2.03.31.03,2.66.07,5.52-1.45,9.71-10.92.07-.15-.01-.32-.17-.38s-.35.01-.41.16c-4.47,10.13-7.43,10.83-9.32,10.54-.59-.09-.97-.33-1.16-.73-.41-.85.09-2.32.69-3.55.27-.4.62-.56,1.07-.82,1.94-1.12,2.18-3.6,2.18-3.6.1-2.88.63-5.46,1.35-7.58.01-.04.03-.09.04-.13.38-1.11,1.36-1.95,2.57-2.29,3.51-1.01,6.36-3.43,7.73-6.57.53-1.2.84-2.51.88-3.87.16-4.75-2.89-8.89-7.34-10.65-2.05-.81-3.09-2.89-2.46-4.86,0-.01,0-.03.01-.04.13-.41.26-.82.38-1.24.61-2.12,1.08-4.36,1.4-6.69,8.93,5.82,14.62,15.55,14.25,26.42Z"/>
      <line class="cls-6" x1="56.17" y1="32.88" x2="56.02" y2="32.88"/>
      <g>
        <path class="cls-2" d="M13.81,61.54c.96.89,1.97,1.93,2.73,2.96.84-1.38,1.54-2.39,1.62-2.49.06-.09.17-.13.27-.13,0-.14,0-.27,0-.41.06-1.85.29-3.66.66-5.43-1,.82-4.17,3.5-5.29,5.51Z"/>
        <path class="cls-2" d="M13.73,52.38c.06.06.97.85,1.94,1.97,1.17-1.27,2.57-2.23,3.55-2.82-.3-1.27-.76-2.79-1.11-3.86-.21-.66-.39-1.19-.48-1.46-1.5,1.93-2.84,3.97-3.98,6.12.03.01.06.03.08.05Z"/>
        <path class="cls-2" d="M18.66,47.34c.02.06.04.11.06.17.33,1.03.76,2.46,1.07,3.7.36-.2.59-.31.62-.32.08-.04.17-.04.25-.01,1-2.51,2.3-4.89,3.88-7.08-1.3.7-4.54,2.47-5.87,3.55Z"/>
        <path class="cls-2" d="M17.38,83.16c2.41.35,4.38.93,5.86,1.72,0-.03,0-.07.02-.1.41-2.44,1-3.63,1.03-3.68.02-.04.05-.07.08-.1-1.89-2.66-3.37-5.58-4.39-8.68-.57,1.27-2.59,6.09-2.82,10.81.07.01.15.02.22.03Z"/>
        <path class="cls-2" d="M10.93,59.1c.08.06,1.15.88,2.42,2.02.78-1.31,2.27-2.81,3.53-3.95-1-1.99-3.1-3.92-3.5-4.28-1.01,1.98-1.87,4.04-2.55,6.17.04.01.08.03.11.05Z"/>
        <path class="cls-2" d="M19.55,71.76c.04-.08.12-.14.2-.16-.85-2.83-1.31-5.82-1.33-8.89-.94,1.41-4.11,6.29-4.32,8.8,1.49.89,3.05,1.96,4.29,3.09.61-1.71,1.14-2.82,1.15-2.84Z"/>
        <path class="cls-2" d="M16.06,54.83c.47.59.93,1.24,1.29,1.9.89-.79,1.57-1.33,1.64-1.38.08-.06.18-.08.27-.06.3-1.27.68-2.52,1.12-3.73-.76.4-2.8,1.58-4.33,3.27Z"/>
        <path class="cls-3" d="M83.68,103.55c-1.68-1.03-5.63-4.89-6.28-6.7-.59-1.66-.6-3.23-.53-4.12-1.15.8-2.65,1.5-3.16,1.74-.17,6.61,3.04,10.56,5.16,12.43,1.75-1,3.42-2.1,5.01-3.3-.07,0-.13,0-.19-.04Z"/>
        <path class="cls-2" d="M84.67,82.45c.08.03.15.08.18.16.02.05.53,1.27.78,3.72,0,.03,0,.07,0,.1,1.54-.71,3.54-1.19,5.97-1.42.07,0,.15-.01.22-.02.1-5.03-1.82-10.29-2.15-11.14-1.22,3.1-2.92,5.99-5.01,8.59Z"/>
        <path class="cls-2" d="M97.77,85.53h0s-3.95-.13-6.09.07c-2.45.23-4.5.74-5.98,1.47.13,1.83.06,3.82-.19,5.94,4.41-.95,8.53-.86,8.58-.86.12.01.22.09.26.19,1.4-2.17,2.59-4.46,3.56-6.85-.04.02-.09.03-.13.03Z"/>
        <path class="cls-2" d="M85,86.4c-.2-2.02-.59-3.18-.7-3.48-6.84,8.23-17.65,13.48-29.68,13.36,1.3.62,2.46,1.62,3.18,2.34.02.02.04.04.05.05.38.38.26.99-.23,1.24-.03.01-.05.02-.06.03-1.39.74-2.42,1.92-2.97,2.66-.12.16-.04.38.16.44.79.24,1.75.69,2.4,1.01l.03.02c.56.28.7.97.29,1.42h0c-.97,1.07-2.27,2.15-3.02,2.74-.15.12-.14.33.01.45,2.83,2.08,4.21,4.36,4.18,4.39,7.12-.56,13.8-2.63,19.65-5.86-2.23-2.02-5.46-6.14-5.23-12.94v-.18s.18-.08.18-.08c.03-.01,2.54-1.1,3.79-2.19l.7-.61-.17.87s-.37,1.97.28,4.16c1.9-1.52,4.46-2.47,6.99-3.07.3-2.45.35-4.73.15-6.77Z"/>
        <path class="cls-2" d="M52.75,108.64c.16-.11.18-.32.04-.44-.71-.63-1.93-1.77-2.82-2.89h0c-.38-.48-.19-1.16.39-1.41h.03c.68-.31,1.66-.7,2.47-.9.2-.05.3-.26.19-.43-.5-.77-1.45-1.99-2.78-2.8-.01,0-.04-.02-.06-.04-.47-.27-.55-.89-.14-1.25.02-.02.04-.03.06-.05.77-.68,1.99-1.63,3.33-2.18-11.99-.46-22.4-6.19-28.69-14.69-.18.43-.58,1.53-.88,3.31-.34,2-.44,4.24-.32,6.66,2.21.58,4.71,1.62,6.78,3.51.8-2.14.56-4.11.56-4.13l-.11-.88.66.64c1.18,1.15,3.61,2.36,3.64,2.38l.17.09v.18c-.24,6.87-3.81,10.83-6.18,12.71,5.62,3.5,12.15,5.89,19.21,6.79-.03-.03,1.5-2.24,4.47-4.18Z"/>
        <path class="cls-2" d="M9.13,68.9c.14.06,2.11.94,4.38,2.26.27-1.71,1.54-4.15,2.69-6.08-1.64-2.33-4.92-4.94-5.56-5.44-.89,2.96-1.45,6.05-1.62,9.23.04,0,.08.01.12.03Z"/>
        <path class="cls-2" d="M94.02,92.74c-.07,0-10.84-.2-15.94,4.1.79,1.76,4.45,5.29,5.96,6.22.11.07.16.19.13.3,3.91-3,7.27-6.59,9.93-10.63-.03,0-.06,0-.08,0Z"/>
        <path class="cls-2" d="M18.16,45.83s.12.35.3.89c1.69-1.29,5.35-3.23,6.16-3.66.06-1.85.01-3.39-.01-3.95-2.43,1.97-4.63,4.18-6.57,6.58.05.03.09.08.12.14Z"/>
        <path class="cls-2" d="M87.13,44.63c.79.47,4.31,2.6,5.91,3.97.18-.44.29-.71.29-.71.03-.07.08-.12.15-.15-1.75-2.5-3.78-4.81-6.06-6.91-.04.35-.21,1.77-.29,3.8Z"/>
        <path class="cls-2" d="M34.61,93.48c-.5-.26-1.95-1.03-3.04-1.89,0,.89-.1,2.46-.81,4.09-.77,1.78-2.05,3.17-3.8,4.11-.15.08-.35.04-.43-.1-.09-.14-.04-.32.11-.4,1.56-.85,2.72-2.08,3.45-3.65-4.75-4.54-12.1-4.22-12.17-4.22-.17.01-.32-.11-.33-.28s.13-.3.3-.31c.04,0,2.24-.1,5.04.53-.1-2.1-.02-4.07.23-5.86-1.42-.8-3.44-1.41-5.87-1.77-2.13-.31-3.85-.32-3.86-.32h0c-.17,0-.31-.13-.31-.29,0-.16.14-.29.32-.29.06,0,1.35,0,3.11.22.15-2.83.92-5.68,1.64-7.81-2.98-2.84-8.31-5.34-9.19-5.75,0,.07,0,.15-.01.22-.51,14.84,7.31,28.1,19.57,35.98,2.24-1.74,5.78-5.53,6.07-12.21Z"/>
        <path class="cls-2" d="M91.36,77.06c.58,2.17,1.15,5.06,1.1,7.9,2.23-.12,5.27-.02,5.33-.02.12,0,.21.07.26.16,1.61-4.1,2.55-8.5,2.71-13.1,0-.04,0-.09,0-.13-.85.34-6.28,2.53-9.41,5.19Z"/>
        <path class="cls-2" d="M92.18,63.6c.07.11.77,1.27,1.57,2.81.83-.97,1.91-1.95,2.91-2.78-.64-1.36-2.15-3.05-3.38-4.3,0,0-.02-.01-.02-.02-.78-.79-1.44-1.4-1.69-1.63.27,1.83.38,3.71.31,5.61,0,.05,0,.1,0,.15.12,0,.24.04.31.15Z"/>
        <path class="cls-2" d="M91.94,53.35c.94.64,2.29,1.68,3.38,3.02.97-.98,1.84-1.66,1.9-1.7.05-.04.1-.05.15-.06-.99-2.21-2.17-4.33-3.54-6.34-.1.25-.32.76-.57,1.42-.4,1.02-.94,2.46-1.32,3.67Z"/>
        <path class="cls-2" d="M91.91,57.17c.07.06.72.64,1.55,1.47.4-.65.91-1.27,1.43-1.82-1.11-1.4-2.57-2.49-3.49-3.11,0,0,0,0,0,0-.37-.25-.65-.41-.8-.5.39,1.29.69,2.61.91,3.95.12-.09.3-.09.41.01Z"/>
        <path class="cls-2" d="M93.89,59.08c1.18,1.21,2.58,2.8,3.27,4.16,1.25-1,2.28-1.69,2.36-1.75.05-.04.11-.05.17-.05-.53-2.18-1.24-4.29-2.11-6.33-.17.13-2.52,1.99-3.7,3.97Z"/>
        <path class="cls-2" d="M93.42,67.18s-.06-.09-.07-.14c-.63-1.23-1.21-2.25-1.52-2.78-.2,3.17-.88,6.22-1.95,9.09.15-.02.29.05.35.18.01.03.46,1.16.96,2.9,1.31-1.07,2.94-2.04,4.48-2.85,0-1.62-1.17-4.27-2.24-6.4Z"/>
        <path class="cls-2" d="M90.42,52.7c.1-.09.25-.12.38-.05.03.02.26.14.6.36.38-1.18.89-2.54,1.28-3.51.04-.1.08-.2.12-.29-1.35-1.23-4.86-3.38-5.88-3.99,1.48,2.34,2.66,4.85,3.5,7.49Z"/>
        <path class="cls-2" d="M100.66,71.3s.09-.02.13-.02c.05-3.19-.28-6.29-.96-9.29-.5.34-3.97,2.76-5.78,5,1.03,2.03,2.11,4.54,2.25,6.26,2.28-1.16,4.21-1.9,4.36-1.95Z"/>
      </g>
      <path class="cls-1" d="M74.67,23.78C73.01,10.32,65.94.22,57.12,0c-8.82-.22-16.57,9.5-19.15,22.86C16.57,29.29.78,47.57.03,69.48c-.96,27.86,22.74,51.05,52.93,51.81,30.19.76,55.44-21.21,56.39-49.07.75-21.91-13.76-40.95-34.68-48.43ZM53.1,117.21c-27.75-.69-49.53-22.01-48.65-47.62.67-19.45,14.22-35.78,32.86-42.2,1.41-.48,2.86-.92,4.33-1.29.24-1.54.56-3.02.96-4.43,2.51-8.9,8.06-15.07,14.29-14.92,6.23.16,11.35,6.6,13.24,15.61.3,1.43.52,2.92.65,4.47,1.44.44,2.85.95,4.23,1.5,18.17,7.34,30.58,24.32,29.92,43.77-.88,25.6-24.08,45.79-51.83,45.1Z"/>
      <path class="cls-3" d="M54.93,63.64c-10.51-.26-18.47-13.58-18.51-30.98,0-.72,2.58-6.16,4.39-7.08.24-1.51.56-2.99.96-4.39,2.73-9.68,8.68-15.83,15.15-15.67,6.47.16,11.99,6.6,14.05,16.4.3,1.42.52,2.91.66,4.43,1.73.98,4.33,6.28,4.29,6.99-1.15,17.26-10.37,30.57-20.99,30.3ZM56.88,7.14c-5.88-.15-11.33,5.6-13.88,14.64-.4,1.4-.71,2.87-.95,4.39l-.04.25-.26.07c-1.18.3-3.86,5.55-3.92,6.25.04,16.46,7.42,29.05,17.16,29.3,9.86.25,18.43-12.35,19.52-28.68-.07-.69-2.71-5.79-3.86-6.15l-.26-.08-.02-.25c-.13-1.52-.35-3.01-.64-4.43-1.93-9.15-6.97-15.16-12.86-15.3Z"/>
      <path class="cls-2" d="M72.78,27.06c-1.81-2.46-5.47-4.61-9.76-5.62-.99-.23-2.02-.42-3.1-.56-1.07-.14-2.17-.22-3.3-.25-6.98-.17-13.51,2.23-16.51,5.47-.29.32-14.82,12.47-14.82,12.47l-.02,4.22c4.19-5.61,9.88-8.82,11.96-9.86.17,4.62,4.2,8.37,9.28,8.49,4.62.12,8.58-2.8,9.62-6.79.77,4.03,4.52,7.15,9.14,7.26,5.1.13,9.39-3.44,9.85-8.07,1.91,1.08,7.51,4.59,11.37,10.51l.27-4.22s-13.89-12.91-14-13.05Z"/>
      <g>
        <path class="cls-5" d="M46.38,86.67c-.81-.59-1.46-1.27-1.63-2.25-.02-.09-.11-.16-.16-.24-.22-.4-.52-.77-.64-1.19-.21-.7-.23-1.42,0-2.13.25-.74.41-1.52.77-2.22.67-1.3,1.56-2.48,2.6-3.54.55-.56,1.14-1.13,1.83-1.51,1.74-.97,3.53-1.89,5.34-2.74,1.38-.64,2.89-.98,4.41-1.17,1.56-.19,3.09.1,4.59.45.93.21,1.81.58,2.71.9.41.15.65.45.71.86.05.38.13.72.63.79.08.01.15.1.21.16.65.62.96,1.4,1.1,2.22.16.92-.04,1.82-.25,2.72-.44,1.88-1.32,3.57-2.83,4.91-.89.79-1.86,1.52-3,2.01-.14.06-.3.11-.43.19-1.12.65-2.2,1.35-3.36,1.94-1.27.65-2.66,1.07-4.08,1.29-1.06.16-2.16.12-3.25.17-1.86-.26-3.72-.5-5.27-1.63ZM54.41,77.32c.02.18.05.35.07.53.03,0,.06,0,.08,0,.02-.15.04-.31.06-.5.07.08.11.12.17.18.05-.15.14-.28.13-.41,0-.08-.17-.15-.27-.22-.03-.15-.06-.3-.09-.46.22.15.4.27.59.4.02-.01.04-.03.06-.04-.06-.12-.11-.25-.17-.38.11-.02.23-.01.31-.06.03-.01-.01-.15-.02-.23.31.02.62-.26.58-.56.17.05.32.09.5.14-.04-.08-.08-.17-.12-.26.17-.08.34-.16.53-.25,0-.02-.04-.09-.1-.25.17.12.27.19.45.32-.08-.19-.12-.29-.17-.42.12.05.23.09.34.13.03-.02.06-.05.09-.07-.14-.15-.28-.3-.42-.45.02-.02.04-.04.06-.06.21.19.42.39.69.63,0-.28.02-.55.03-.82.03,0,.06-.01.09-.02.06.31.12.62.18.93.03,0,.06,0,.08-.01-.02-.33-.03-.66-.05-1.03.07.09.14.17.2.25.12-.11.24-.24.38-.37.08.1.16.22.29.39,0-.21,0-.34-.01-.48.02,0,.04,0,.06-.01.06.16.11.31.17.47.03,0,.06-.02.09-.03l-.13-.59s.04-.02.06-.03c.08.14.16.27.25.41h.06c-.02-.14-.04-.27-.05-.4.02,0,.04-.02.06-.02.07.13.13.25.2.38.02,0,.04,0,.06,0-.02-.14-.03-.27-.05-.41.03,0,.07-.01.1-.02.04.24.09.47.13.71.03,0,.07,0,.1-.01-.03-.27-.05-.54-.08-.82.06.02.12.05.22.09-.06-.15-.11-.26-.16-.38.2.12.38.24.23.51-.06.12,0,.3,0,.45.05,0,.09,0,.14,0,.01-.3.02-.59.03-.95.01,0,.09-.06.22-.13.07.17.14.31.2.46.03,0,.05-.01.08-.02-.09-.27-.17-.54-.26-.82.03,0,.06-.02.08-.03.11.29.23.58.34.87.03,0,.05-.01.08-.02-.06-.28-.13-.56-.2-.88.29.27.31.59.3.94.03,0,.07,0,.1-.01-.02-.28-.04-.55-.06-.83.03,0,.06-.01.09-.02.05.23.1.45.16.68.02,0,.03.01.05.02.02-.21.04-.41.06-.62.02,0,.04,0,.06-.01.04.15.09.29.13.44.02,0,.05,0,.07,0,0-.17-.02-.33-.03-.5.02,0,.05,0,.07-.01.06.2.12.41.19.61.02,0,.04,0,.06,0,0-.22.01-.43.02-.65.02,0,.04-.02.06-.02.06.13.12.25.17.38.03,0,.06,0,.09,0-.06-.4-.11-.79-.17-1.19.02,0,.04-.01.06-.02.08.23.15.47.25.75.03-.13.06-.22.08-.31.04,0,.08.01.12.02-.04.23-.08.47-.13.75.21-.28.38-.51.59-.81.12.23.18.37.25.5.02,0,.04,0,.06-.01,0-.12-.02-.24-.03-.36.02-.01.04-.02.05-.03.1.15.21.29.31.44.02,0,.04-.01.06-.02-.06-.15-.12-.3-.18-.45.03-.02.06-.04.09-.05.08.12.16.24.29.44-.03-.2-.05-.34-.07-.51.18.11.34.2.5.29.03-.06.07-.12.16-.29.05.22.08.34.11.48.12-.01.25-.03.4-.05-.02-.14-.04-.25-.04-.27.21-.03.39-.04.56-.09.06-.02.09-.12.13-.18-.11-.06-.22-.12-.34-.19.04-.1.09-.22.15-.37.17.02.34.03.52.05.01-.02.02-.05.03-.07-.1-.04-.2-.09-.31-.11-.12-.03-.25-.03-.38-.11.11-.02.22-.05.35-.07-.65-.35-1.97-.64-2.4-.6v-.25c-.14.08-.26.13-.39.2-.13-.11-.3-.24-.46-.37-.02.01-.04.03-.06.04.06.1.12.2.18.3-.02.01-.03.03-.05.04-.19-.15-.39-.31-.58-.46-.02.01-.04.03-.06.04.07.1.14.21.21.31-.62-.7-1.54-.23-2.3-.63.07.16.1.22.14.33-.23-.1-.41-.18-.59-.25,0,.01-.01.02-.02.03.09.07.17.13.26.2l-.03.06c-.2-.08-.4-.16-.68-.27.09.11.14.17.26.31-.27-.11-.44-.19-.65-.27,0,.09,0,.15.01.23-.19-.06-.36-.12-.52-.17,0,.02-.02.04-.03.06.13.07.26.14.4.2l-.03.08c-.19-.06-.38-.12-.6-.19.02.06.04.11.08.22-.35,0-.68-.02-1.05-.03.2.09.37.18.54.26,0,.02-.02.04-.02.07-.31-.1-.61-.19-.92-.29-.01.03-.02.07-.03.1.11.04.22.07.34.11,0,.02-.01.05-.02.07-.25-.04-.49-.09-.74-.13,0,.02-.01.03-.02.05.29.12.58.24.87.35-.01.02-.02.05-.03.07-.44-.13-.89-.26-1.33-.38-.01.03-.02.05-.03.08.21.09.41.19.62.28-.01.02-.02.05-.03.07-.32-.09-.63-.18-.95-.27-.02.04-.03.08-.05.13.34.12.68.24,1.02.36-.01.03-.02.06-.03.09-.44-.14-.88-.28-1.32-.42-.02.03-.03.07-.05.1.41.18.82.35,1.22.53-.02.04-.04.08-.05.13-.52-.29-1.05-.53-1.68-.47.2.09.4.18.61.27,0,.01-.01.03-.02.04-.37-.07-.73-.14-1.1-.21,0,.04-.02.08-.03.12.25.09.49.17.74.26-.01.04-.02.07-.03.11-.38-.14-.75-.31-1.27-.25.25.1.39.15.52.21,0,.03-.01.05-.02.08-.26-.04-.51-.09-.77-.13,0,.03-.01.06-.02.09.29.12.58.23.87.35-.59,0-1.16-.54-1.75.07.25.11.48.2.71.3,0,.02-.01.04-.02.06-.34-.08-.69-.17-1.03-.25-.01.04-.02.08-.04.13.17.06.34.13.51.19,0,.03-.02.06-.03.09-.27-.07-.53-.14-.8-.21l-.04.09c.27.11.53.23.8.34,0,.02-.02.04-.03.06-.37-.1-.73-.2-1.1-.31-.01.03-.03.06-.04.09.2.09.41.18.61.26,0,.02-.02.04-.02.06-.33-.08-.67-.15-1-.23,0,.04-.02.07-.03.11l.93.34-.03.08c-.21-.06-.41-.13-.62-.17-.21-.05-.43-.07-.65-.11-.02.04-.03.08-.05.12.28.13.57.25.92.41-.53.04-.88-.44-1.44-.16.22.09.37.16.51.22v.05c-.09,0-.19,0-.26-.03-.33-.18-.62-.09-.87.13-.39.33-.76.69-1.14,1.03-.04.04-.11.04-.25.14.1.03.2.05.3.08-.01.04-.02.08-.04.13-.37-.21-.48,0-.6.24.28.1.56.2.83.3,0,.02-.02.05-.03.07-.34-.08-.67-.16-1.01-.24-.01.03-.03.06-.04.09.31.23.62.46.94.69-.02.03-.05.06-.07.09-.24-.16-.48-.33-.72-.49l-.06.06c.07.07.13.15.2.22l-.03.05c-.19-.09-.38-.18-.57-.26-.01.02-.03.04-.04.06.27.22.55.44.82.66-.02.02-.04.05-.07.07-.27-.19-.54-.38-.82-.57-.02.03-.04.05-.07.08.11.08.22.16.33.25.11.09.21.19.4.35-.43-.09-.58-.54-1.06-.38.24.19.42.33.61.48-.01.02-.03.04-.04.06-.2-.1-.39-.19-.59-.29-.02.02-.03.04-.05.06.18.13.35.27.53.4-.02.03-.04.05-.06.08-.2-.12-.41-.24-.61-.36l-.06.08c.25.18.49.37.74.55-.02.02-.04.05-.06.07-.23-.14-.45-.28-.68-.42-.02.02-.03.05-.05.07.22.17.45.34.67.51-.02.03-.04.05-.06.08-.26-.17-.52-.33-.8-.51-.09.14-.17.25-.25.37.15.12.28.23.41.34-.01.02-.02.04-.04.06-.16-.07-.32-.15-.49-.22-.02.03-.03.05-.05.08.1.09.21.18.36.31-.22-.04-.35-.07-.49-.1-.01.03-.03.05-.04.08.08.06.15.12.27.22h-.43c.07.06.11.11.18.18-.11.02-.21.04-.38.07.15.1.23.15.4.27h-.43s-.03.05-.04.07c.1.07.21.14.38.26-.2-.03-.31-.04-.43-.06-.01.03-.03.06-.04.08.2.09.4.18.6.28-.01.03-.02.05-.03.08-.22-.06-.44-.12-.66-.17-.01.04-.03.08-.04.12.28.11.55.22.83.33-.01.03-.03.07-.04.1-.27-.09-.53-.18-.84-.28-.05.15-.09.27-.13.39.27.11.5.21.74.31-.01.03-.03.06-.04.09-.23-.08-.46-.16-.73-.26-.23.56-.19,1.13-.12,1.71.01.11.03.23,0,.34-.05.25.07.39.28.52.08.05.16.19.14.26-.11.37-.11.39.3.45.04,0,.07-.01.14-.02-.17-.08-.32-.14-.47-.21l.04-.09c.12.02.24.04.44.07-.11-.1-.17-.16-.29-.27.22,0,.37,0,.54-.01-.19-.17-.38-.33-.56-.49.03-.03.05-.06.08-.09.16.05.32.1.49.15,0-.02.01-.03.02-.05-.09-.05-.18-.13-.26-.13-.39.02-.47-.29-.61-.5-.1-.15-.1-.36.23-.26h-.01c.27.13.5.33.86.33.18,0,.36.16.54.24-.02.03-.03.06-.05.08-.14-.07-.27-.13-.36-.18.17.28.35.58.56.92.12.03.1-.51.41-.15-.02-.06-.04-.12-.07-.21.11.04.2.08.35.13-.08-.13-.13-.21-.22-.36.2.1.33.17.47.24.02-.02.04-.03.06-.05-.06-.1-.12-.2-.23-.37.14.07.23.1.36.17-.11-.29-.21-.55-.31-.8.03-.02.06-.03.1-.05.11.14.21.27.34.44.2-.09.5-.14.6-.3.1-.15-.02-.42,0-.65.09.19.19.38.28.56.04,0,.07,0,.11-.01-.03-.19-.07-.37-.1-.56.01,0,.03-.02.04-.03.09.16.18.32.27.48.03,0,.05,0,.08-.01-.07-.22-.14-.44-.21-.69.09.04.16.07.26.11,0-.11,0-.21.01-.32.03,0,.07-.01.1-.02.09.25.18.51.28.78.26-.33-.1-.62-.12-.92.04-.01.09-.02.13-.03.08.27.17.54.27.87,0-.22.01-.38.02-.55.03,0,.06-.01.08-.02.04.13.08.25.13.38.04,0,.08-.01.12-.02-.06-.35-.12-.71-.19-1.09.32.21.27.54.32.84.04,0,.08,0,.12-.01-.04-.3-.09-.6-.13-.9l.07-.03c.08.24.17.49.25.73.04,0,.08-.02.12-.02-.07-.3-.15-.61-.22-.91.04-.01.07-.02.11-.03.09.24.17.49.26.73.03,0,.06,0,.08,0,0-.14.03-.3-.02-.43-.05-.15-.17-.28-.26-.43.03-.02.07-.04.1-.06.12.19.25.39.38.59q.31-.11.17-.88c.18.22.35.45.55.71.35-.4.05-.74-.02-1.08.04-.01.09-.02.13-.03.09.29.17.58.29.96.18-.47.04-.81-.17-1.23.49.23.3.65.46,1.02.32-.51-.05-.85-.22-1.27.53.22.36.69.54,1,.04-.01.08-.02.13-.03-.07-.33-.15-.65-.22-.99.4.03.24.49.55.67-.06-.29-.11-.58-.17-.87.03,0,.05-.02.08-.03.09.25.19.5.3.79.03-.12.06-.23.1-.37.07.07.12.12.21.22v-.42c.11.08.18.13.33.25-.02-.3-.03-.52-.04-.74-.04,0-.08,0-.13-.01-.03.11-.06.23-.1.4-.13-.2-.23-.36-.34-.52.2-.02.52.08.26-.34.33.13.53.14.3-.28.18.07.31.11.46.17-.08-.13-.14-.24-.26-.43.19.1.29.15.39.21.02-.02.04-.03.06-.05-.08-.11-.16-.21-.25-.32.01-.01.03-.03.04-.04.15.08.3.15.44.23.18.18.09.35-.25.43ZM61.62,81.34c.08.29.15.58.23.88.03,0,.06,0,.09-.01-.04-.39-.07-.78-.11-1.17.05,0,.11,0,.16-.01.02.3.04.59.06.96.45-.37.06-.82.37-1.26.04.45.07.8.1,1.21.07-.36.13-.67.18-.98.03,0,.05,0,.08-.01.05.18.11.36.16.54l.13-.02c-.02-.26-.04-.53-.06-.79.05,0,.1-.02.16-.03.06.27.13.55.21.91.06-.24.1-.4.15-.59.07.13.13.24.23.44.02-.29.04-.48.06-.67.04,0,.07,0,.11-.01.03.08.06.15.07.23.02.08.01.17.02.26h.11c-.01-.31-.03-.62-.04-.92l.12-.02c.06.28.12.56.19.93.05-.22.09-.36.13-.54.06.02.13.05.21.08.01-.05.03-.11.08-.26.06.11.09.17.13.23.02,0,.04-.01.06-.02-.02-.2-.04-.39-.07-.68.12.15.17.22.28.36-.03-.27-.06-.45-.08-.63.03,0,.05-.01.08-.02.06.17.12.35.19.52.3-.24.57-.48.44-.89.1.17.2.35.3.52.03,0,.06,0,.08-.01-.01-.14-.03-.29-.04-.47.07.04.13.07.19.11.05-.08.1-.16.15-.24.04.01.08.03.12.04-.01-.11-.03-.23-.05-.39.09.04.14.06.2.08.09-.19.18-.39.3-.66-.03-.03-.13-.15-.31-.37.21.04.32.06.44.08-.04-.11-.09-.25-.15-.38l.12-.08c.04.1.08.21.12.31.04-.03.09-.06.13-.09-.07-.14-.14-.28-.22-.45.12.02.25.04.45.08-.21-.23-.38-.44-.56-.64.01-.01.02-.03.04-.04.16.1.32.21.48.31.02-.02.05-.04.07-.05-.09-.1-.18-.2-.28-.32.06-.02.15-.06.27-.1-.04-.09-.08-.19-.12-.29.02-.01.04-.03.06-.04.07.07.13.14.2.21.05-.06.12-.13.18-.21-.15-.21-.3-.41-.45-.62.03-.02.06-.04.08-.06.17.2.33.39.5.59l.1-.06c-.09-.14-.18-.27-.3-.45.04-.13.1-.36.16-.6.04.02.13.06.27.13-.13-.15-.23-.25-.39-.43.16.04.22.06.29.08-.27-.5-.53-1-.84-1.58.14.1.21.18.3.2.07.01.16-.06.18-.08-.1-.15-.16-.28-.26-.37-.08-.06-.26-.11-.33-.07-.43.25-.89.17-1.32.1-.54-.08-1.02,0-1.51.16-1.11.36-2.24.68-3.33,1.07-.65.24-1.28.55-1.87.9-.96.58-1.9,1.2-2.82,1.83-.39.27-.73.6-1.11.88-1.23.92-2.46,1.83-3.7,2.73-1.81,1.32-3.84,2.25-6.03,2.89-.57.17-.82.84-.51,1.37.03-.17.05-.31.08-.51.12.1.21.18.31.25.07-.09.14-.19.27-.37l-.02.63c.24-.33.4-.21.65-.04.29.2.64.36.99.43,1.28.25,2.55.56,3.92.44,0,.14,0,.27.01.39-.02,0-.04,0-.06.01-.03-.05-.06-.11-.12-.22v.31c-.16-.08-.27-.15-.38-.21-.03.04-.1.14-.18.27-.1-.09-.18-.17-.29-.27,0,.17-.01.29-.01.42-.03,0-.06.02-.09.03-.08-.18-.16-.36-.24-.54-.02,0-.04,0-.05,0,.01.3.03.6.04.9-.03,0-.06.02-.08.02-.07-.32-.13-.64-.2-.96-.03-.01-.06-.02-.1-.03-.14.22-.27.43-.41.65-.04-.16-.09-.37-.14-.57-.04,0-.08,0-.12,0,.01.21.03.42.04.63-.02,0-.04.02-.06.02-.09-.23-.18-.46-.27-.69-.02,0-.04.01-.07.02.03.22.06.43.1.65-.04,0-.07.02-.11.03-.08-.2-.16-.41-.25-.64-.07.12-.13.22-.24.42-.05-.23-.07-.36-.1-.5-.02,0-.04,0-.06,0-.03.2-.05.4-.08.59l-.06.02c-.07-.26-.15-.52-.22-.78-.01,0-.03,0-.04,0,0,.22-.01.44-.02.66-.04,0-.08,0-.12.01-.05-.24-.09-.49-.16-.82-.05.21-.07.33-.1.46h-.08c-.05-.14-.1-.29-.15-.46-.05.06-.1.13-.18.22-.08-.11-.15-.21-.21-.29-.05.04-.11.07-.19.13-.02-.15-.03-.25-.04-.36-.03,0-.05,0-.08-.01-.03.13-.07.26-.13.49-.09-.28-.15-.48-.22-.69-.02,0-.05.01-.07.02,0,.13,0,.27.01.4-.03,0-.07.01-.1.02-.07-.27-.14-.53-.2-.8-.15.48,0,.87.35,1.19.11.1.3.11.46.16,0-.03,0-.15,0-.26.02,0,.04,0,.06-.01.1.28.21.57.31.85.04-.01.08-.02.12-.04-.06-.22-.13-.44-.19-.66.02,0,.05-.01.07-.02.14.32.29.64.43.96.03,0,.06-.01.08-.02.01-.06.03-.12.06-.23.12.15.21.27.3.39.02,0,.03-.01.05-.02-.06-.13-.12-.25-.17-.38.01-.01.03-.02.04-.03.22.27.43.54.65.81.03-.02.06-.04.09-.06-.12-.16-.23-.33-.35-.49.02-.02.04-.03.06-.05.18.2.37.4.53.59.42-.2.54.26.89.28-.17-.19-.32-.36-.47-.53.02-.02.04-.03.07-.05.27.22.54.45.81.67.04.03.08.07.12.07.36.03.71.05,1.08.07.16.46.45-.15.67,0v.15c.34-.02.66-.05,1.05-.07q.1.1.58-.16c-.03.1-.05.16-.09.29.13-.07.22-.11.29-.17.06-.06.1-.14.15-.21.03.02.07.05.1.07-.01.07-.02.14-.04.25.17-.1.32-.19.51-.3-.03.11-.05.17-.09.32.23-.17.41-.3.66-.48-.08.16-.12.25-.17.34.01.02.03.03.04.05.17-.13.33-.26.5-.38l.05.04-.19.27s.06.05.08.08c.18-.16.36-.32.57-.5-.03.12-.05.23-.1.41.2-.17.35-.3.59-.49-.04.15-.06.21-.07.27.02.03.05.05.07.08.2-.18.39-.35.6-.53-.04.09-.08.2-.14.35.42-.13.41-.51.68-.73-.05.16-.09.32-.14.48.02.01.04.02.06.04.09-.11.18-.23.3-.38.03.09.05.16.1.32.13-.26.23-.45.33-.64.01,0,.03,0,.04,0-.02.13-.03.27-.06.49.13-.18.21-.29.3-.43.04.05.08.1.15.18.09-.14.17-.27.28-.45.02.13.03.2.04.27.02,0,.05.01.07.02.08-.18.15-.35.23-.53.02,0,.03,0,.05.01v.31s.04.01.07.02c.06-.17.12-.34.21-.6.02.18.03.28.05.48.12-.24.19-.39.31-.64.01.19.02.27.02.34.03.01.05.02.08.03.08-.18.17-.37.26-.59.02.12.03.21.06.38.1-.22.17-.36.28-.62,0,.2,0,.29.01.39.02,0,.05.01.07.02.07-.14.14-.29.22-.45.05.05.1.11.17.19.07-.16.13-.28.23-.5.03.17.04.25.07.44.17-.29.28-.48.39-.68.02,0,.03,0,.05.01-.02.12-.05.24-.1.46.28-.39.5-.7.72-1.01l.06.03-.11.32s.05.03.08.05c.12-.18.24-.36.39-.59.01.14.02.24.04.42.17-.28.3-.5.47-.78v.43s.02.01.04.02c.12-.19.24-.39.36-.58.02,0,.04.01.06.02-.02.11-.04.21-.06.32.03.01.05.02.08.03.15-.3.31-.6.46-.9.01,0,.03,0,.04,0-.02.18-.05.35-.08.62.33-.4.6-.74.93-1.15-.03.26-.06.44-.08.63.03,0,.05.02.08.03l.24-.67s.04,0,.06,0c0,.11.01.22.02.33.02,0,.04,0,.06,0,.06-.23.13-.45.19-.68h.09c-.02.16-.03.31-.05.46.02,0,.03.01.05.02.03-.06.07-.13.1-.19.2-.43.39-.86.58-1.27.01.1.03.25.05.39.04,0,.08.01.11.02.03-.13.06-.27.07-.4,0-.15-.02-.3-.03-.45.04,0,.07,0,.11-.01.04.22.09.44.15.72.09-.33.16-.61.23-.89.02,0,.03,0,.05,0,.02.11.04.22.06.33.04,0,.07,0,.11,0l.03-.99c.07.09.15.2.28.38l.02-.68c.09.05.14.07.23.13-.04-.24-.07-.44-.11-.75.14.16.2.23.32.38-.03-.3-.04-.52-.07-.83.11.14.17.21.22.28.03,0,.05-.02.08-.03-.08-.27-.17-.55-.28-.93.16.22.26.35.35.48.02,0,.03,0,.05-.01-.06-.24-.13-.47-.19-.71-.04,0-.07,0-.11,0-.05.09-.11.17-.16.26-.21.37-.41.75-.62,1.12-.82,1.4-2.16,2.27-3.67,2.92-1.19.51-2.41.96-3.51,1.63-.66.4-1.38.73-2.07,1.08-.08.04-.17.05-.26.07-.02-.03-.04-.06-.07-.09.08-.06.16-.12.28-.2,0-.02-.02-.12-.04-.27.11.07.17.11.26.16.03-.11.06-.21.1-.32.07.06.13.11.26.21l.02-.52s.06,0,.09-.01c.04.1.09.21.13.31.03,0,.05.01.08.02.03-.15.07-.31.11-.52.08.15.13.26.24.48l.02-.59s.05-.01.08-.02c.05.1.1.21.16.31.02,0,.05,0,.07,0,.01-.15.03-.31.04-.52.09.13.15.21.22.3.02,0,.05,0,.07-.01-.02-.14-.04-.29-.05-.41.15-.02.39,0,.42-.07.06-.13,0-.31,0-.46.04-.02.07-.03.11-.05.11.17.22.34.32.51.38-.55.6-1.18.62-1.86.04,0,.07,0,.11,0-.06.5-.12,1-.19,1.56.5-.38.31-.83.47-1.22ZM45.73,82.78c.03-.27-.39-.56-.83-.49.3.18.58.35.83.49Z"/>
        <path class="cls-5" d="M52.18,85.93c.04.17.06.28.1.44.07-.19.12-.33.14-.39.24,0,.43.02.59-.04.07-.03.05-.24.06-.28-.54.04-1.03.08-1.55.12l-.02.49c.12-.19.2-.31.33-.51.05.2.07.29.1.43.08-.09.15-.16.24-.26Z"/>
        <path class="cls-5" d="M53.45,85.94c.18-.09.35-.18.55-.28.02.04.07.1.12.19.05-.09.1-.17.16-.26.06.05.12.1.22.17.03-.15.05-.26.09-.45-.35.21-.74-.01-1.02.28-.06.06-.25-.01-.38.01-.04,0-.04.14-.06.22.06,0,.14-.01.19,0,.06.02.1.08.13.1Z"/>
        <path class="cls-5" d="M55.36,85.2c-.12-.13-.25-.27-.44-.47.04.26.4.48-.06.55-.03-.05-.07-.13-.11-.21-.03,0-.05,0-.08.01,0,.19,0,.39.01.69.23-.28.8-.02.68-.57h0Z"/>
        <path class="cls-5" d="M64.5,78.82c-.26-.48-.52-.97-.78-1.45-.04.02-.07.03-.11.05.25.48.51.96.76,1.44.04-.01.09-.02.13-.04Z"/>
        <path class="cls-5" d="M55.35,85.19c.05.11.1.21.14.3.11-.02.24-.02.32-.07.07-.05.1-.17.14-.26-.11-.05-.22-.09-.41-.17,0,0-.04-.1-.1-.27-.04.21-.07.34-.09.48,0,0,0,0,0,0Z"/>
        <path class="cls-5" d="M62.16,77.82c.33.46.63.88.93,1.29-.2-.49-.4-.97-.93-1.29Z"/>
        <path class="cls-5" d="M64.75,74.64c.3.38.6.76.91,1.14.03-.02.06-.04.09-.06-.3-.38-.6-.76-.91-1.14-.03.02-.06.04-.09.06Z"/>
        <path class="cls-5" d="M62.42,77.54c.28.37.56.75.82,1.1,0-.33-.25-.7-.82-1.1Z"/>
        <path class="cls-5" d="M59.47,80.65c-.05.35-.1.71-.15,1.06.04,0,.08,0,.12.01.05-.35.11-.71.16-1.06-.04,0-.09-.01-.13-.02Z"/>
        <path class="cls-5" d="M60.53,81.27c-.08-.33-.16-.66-.24-.98l-.14.03c.08.32.17.65.25.97l.13-.02Z"/>
        <path class="cls-5" d="M58.31,82.79c.03.09.05.18.1.35-.18-.06-.3-.1-.43-.15.05.14.1.3.15.45.1-.09.19-.16.28-.24l.12.04c-.04-.16-.08-.32-.12-.48-.03.01-.07.03-.1.04Z"/>
        <path class="cls-5" d="M64.8,77.31c-.22-.31-.45-.62-.67-.93-.04.02-.07.04-.11.06.23.31.46.61.69.92.03-.02.06-.03.09-.05Z"/>
        <path class="cls-5" d="M52.49,81.62c-.33-.21-.66-.43-.99-.64-.02.03-.04.05-.06.08.33.22.65.43.98.65.03-.03.05-.05.08-.08Z"/>
        <path class="cls-5" d="M47.78,83.94c.14.3.28.61.42.91.03-.01.07-.03.1-.04-.14-.3-.28-.6-.42-.9-.04.01-.07.02-.11.03Z"/>
        <path class="cls-5" d="M44.61,81.75c.19.04.38.07.56.11,0-.02.02-.04.03-.06-.25-.1-.49-.2-.74-.3,0-.02.02-.04.03-.06.23.07.46.13.69.2.01-.03.02-.06.03-.1-.25-.08-.5-.17-.76-.24-.05-.01-.15.03-.16.06-.01.06,0,.14.05.18.08.09.19.15.28.23,0,0-.01-.01-.01-.01Z"/>
        <path class="cls-5" d="M52.94,74.55c-.52-.27-1.05-.54-1.57-.81-.02.03-.03.06-.05.09.52.27,1.04.55,1.56.82.02-.04.04-.07.06-.11Z"/>
        <path class="cls-5" d="M45.73,81.97c.04.28.75.29.33.77h.36c0-.41-.23-.67-.69-.77Z"/>
        <path class="cls-5" d="M44.95,81.11c-.19-.09-.38-.18-.58-.27.01-.03.02-.05.03-.08.18.05.35.11.59.18-.05-.09-.05-.13-.07-.13-.21-.05-.42-.1-.63-.13,0,0-.07.17-.06.18.21.13.43.24.65.35.02-.04.04-.07.07-.11Z"/>
        <path class="cls-5" d="M49.32,76.74c-.33-.28-.66-.56-.99-.83-.03.03-.05.05-.08.08.32.28.65.56.97.85l.09-.09Z"/>
        <path class="cls-5" d="M54.06,72.46c.34.2.67.39,1.01.59.02-.03.04-.06.07-.1-.34-.2-.67-.39-1.01-.59-.02.03-.04.06-.06.09Z"/>
        <path class="cls-5" d="M48.86,78.38c-.39-.15-.78-.29-1.17-.44-.01.03-.02.06-.04.08.38.16.77.31,1.15.47.02-.04.04-.07.06-.11Z"/>
      </g>
    </g>
  </g>
</svg>