<?xml version="1.0" encoding="UTF-8"?>
<svg id="Capa_2" data-name="Capa 2" xmlns="http://www.w3.org/2000/svg" viewBox="0 0 102.31 102.77">
  <defs>
    <style>
      .cls-1 {
        fill: #f6f6f6;
        stroke-width: 0px;
      }
    </style>
  </defs>
  <g id="Capa_1-2" data-name="Capa 1">
    <path class="cls-1" d="M87.4,14.93C77.79,5.31,65,0,51.37,0,23.29,0,.44,22.84.43,50.92c0,8.98,2.34,17.74,6.8,25.46L0,102.77l27.01-7.08c7.44,4.06,15.82,6.19,24.34,6.2h.02c28.07,0,50.93-22.85,50.94-50.93,0-13.61-5.29-26.4-14.91-36.03M51.37,93.29h-.02c-7.6,0-15.05-2.04-21.55-5.9l-1.55-.92-16.03,4.2,4.28-15.62-1.01-1.6c-4.24-6.74-6.48-14.53-6.47-22.53.01-23.34,19-42.32,42.36-42.32,11.31,0,21.94,4.41,29.94,12.41,7.99,8,12.39,18.64,12.39,29.95,0,23.34-19,42.33-42.34,42.33M74.59,61.59c1.28.64,2.12.96,2.44,1.49.32.53.32,3.08-.74,6.05-1.06,2.97-6.15,5.69-8.59,6.05-2.19.33-4.97.47-8.02-.5-1.85-.59-4.22-1.37-7.26-2.68-12.77-5.51-21.11-18.36-21.74-19.21-.64-.85-5.2-6.9-5.2-13.16s3.29-9.34,4.45-10.61c1.17-1.28,2.55-1.59,3.4-1.59s1.7,0,2.44.04c.78.04,1.83-.3,2.86,2.18,1.06,2.55,3.61,8.81,3.93,9.45.32.64.53,1.38.11,2.23-.42.85-.64,1.38-1.27,2.12-.64.75-1.34,1.66-1.91,2.23-.64.64-1.3,1.32-.56,2.6.74,1.28,3.3,5.44,7.08,8.82,4.86,4.33,8.96,5.68,10.24,6.31,1.27.64,2.02.53,2.76-.32.74-.85,3.18-3.71,4.03-4.99.85-1.28,1.7-1.06,2.86-.64,1.17.43,7.42,3.5,8.7,4.14"/>
  </g>
</svg>